<?xml version="1.0" encoding="UTF-8"?>
<svg id="Capa_1" data-name="Capa 1" xmlns="http://www.w3.org/2000/svg" viewBox="0 0 802.04 710.09">
  <defs>
    <style>
      .cls-1 {
        fill: #813bc8;
        stroke-width: 0px;
      }
    </style>
  </defs>
  <path class="cls-1" d="m292.91,210.9c-17.92,8.66-37.35.44-41.13-1.27-32.91-14.86-37.73-58.29-39.01-69.82-1.09-9.79-4.6-41.46,15.83-68.13,5.74-7.49,20.54-26.81,41.98-26.15,21.66.67,35.35,21.27,40.28,28.69,16.15,24.31,13.46,50.68,11.59,68.98-2.4,23.47-5.75,56.19-29.54,67.7Z"/>
  <path class="cls-1" d="m470.93,202.69c17.35,9.76,37.25,2.75,41.13,1.27,33.76-12.8,41.26-55.84,43.25-67.28,1.69-9.7,7.16-41.09-11.59-68.98-5.27-7.83-18.84-28.03-40.28-28.69-21.66-.67-36.6,19.05-41.98,26.15-17.63,23.26-16.57,49.75-15.83,68.13.94,23.58,2.26,56.44,25.3,69.4Z"/>
  <path class="cls-1" d="m662.48,327.71c15.89,11.98,36.55,7.69,40.59,6.74,35.17-8.18,48.34-49.84,51.84-60.91,2.97-9.39,12.57-39.77-2.29-69.9-4.18-8.47-14.94-30.29-36.1-33.81-21.38-3.55-38.81,14-45.09,20.32-20.57,20.7-23.05,47.1-24.77,65.41-2.21,23.49-5.29,56.24,15.82,72.15Z"/>
  <path class="cls-1" d="m134.09,366.25c-16.6,10.98-36.95,5.41-40.93,4.22-34.6-10.34-45.16-52.74-47.97-64-2.38-9.56-10.09-40.47,6.61-69.63,4.69-8.19,16.78-29.31,38.12-31.51,21.55-2.22,37.87,16.37,43.75,23.07,19.25,21.94,20.09,48.44,20.68,66.82.75,23.58,1.8,56.46-20.25,71.04Z"/>
  <path class="cls-1" d="m404.41,598.61c-4.84.64-20.93,3.04-41.56,12.44-26.61,12.13-26.18,20.15-41.98,26.15-32.42,12.31-68.41-8.49-81.84-16.26-12.68-7.33-40.18-23.23-53.14-56.54-13.49-34.67-2.78-66.46,2.55-82.26,8.14-24.17,24.67-43.3,57.39-80.56,36.83-41.95,55.84-63.26,84.81-79.71,19.85-11.27,40.17-23.35,69.4-25.3,45.47-3.03,79.87,20.12,95.12,30.39,14.38,9.68,31.73,30.01,66.43,70.67,12.59,14.76,26.4,31.77,39.43,56.11,3.73,6.96,8.38,15.73,12.86,27.84,7.19,19.43,15.73,42.52,11.59,68.98-6.47,41.36-39.87,64.96-43.25,67.28-27.87,19.07-68.68,26.56-96.4,10.74-16.89-9.64-18.9-22.21-40.28-28.69-15.41-4.67-29.69-2.79-41.13-1.27Z"/>
</svg>